<svg xmlns="http://www.w3.org/2000/svg" xmlns:xlink="http://www.w3.org/1999/xlink" width="500" zoomAndPan="magnify" viewBox="0 0 375 374.999991" height="500" preserveAspectRatio="xMidYMid meet" version="1.0"><defs><g/><clipPath id="b28d5639da"><path d="M 140 144 L 169 144 L 169 230 L 140 230 Z M 140 144 " clip-rule="nonzero"/></clipPath><clipPath id="31497049fb"><path d="M 106.152344 179.070312 L 157.609375 134.234375 L 202.445312 185.691406 L 150.984375 230.527344 Z M 106.152344 179.070312 " clip-rule="nonzero"/></clipPath><clipPath id="ab7210653b"><path d="M 106.152344 179.070312 L 157.609375 134.234375 L 202.445312 185.691406 L 150.984375 230.527344 Z M 106.152344 179.070312 " clip-rule="nonzero"/></clipPath><clipPath id="e942d9f4c8"><path d="M 152 153 L 160 153 L 160 161 L 152 161 Z M 152 153 " clip-rule="nonzero"/></clipPath><clipPath id="65028a0340"><path d="M 106.152344 179.070312 L 157.609375 134.234375 L 202.445312 185.691406 L 150.984375 230.527344 Z M 106.152344 179.070312 " clip-rule="nonzero"/></clipPath><clipPath id="8f1efcf37f"><path d="M 106.152344 179.070312 L 157.609375 134.234375 L 202.445312 185.691406 L 150.984375 230.527344 Z M 106.152344 179.070312 " clip-rule="nonzero"/></clipPath><clipPath id="b90721b690"><path d="M 124 140 L 139 140 L 139 155 L 124 155 Z M 124 140 " clip-rule="nonzero"/></clipPath><clipPath id="141d61657e"><path d="M 123.199219 142.722656 L 137.445312 138.027344 L 141.671875 150.851562 L 127.421875 155.546875 Z M 123.199219 142.722656 " clip-rule="nonzero"/></clipPath><clipPath id="f4ab0e175f"><path d="M 123.199219 142.722656 L 137.445312 138.027344 L 141.671875 150.851562 L 127.421875 155.546875 Z M 123.199219 142.722656 " clip-rule="nonzero"/></clipPath><clipPath id="c2bbca86ab"><path d="M 164 127 L 175 127 L 175 138 L 164 138 Z M 164 127 " clip-rule="nonzero"/></clipPath><clipPath id="823883b2c0"><path d="M 163.140625 128.9375 L 173.113281 125.648438 L 176.164062 134.910156 L 166.191406 138.195312 Z M 163.140625 128.9375 " clip-rule="nonzero"/></clipPath><clipPath id="af365eb520"><path d="M 163.140625 128.9375 L 173.113281 125.648438 L 176.164062 134.910156 L 166.191406 138.195312 Z M 163.140625 128.9375 " clip-rule="nonzero"/></clipPath><clipPath id="daf2eee6db"><path d="M 173 143 L 192 143 L 192 163 L 173 163 Z M 173 143 " clip-rule="nonzero"/></clipPath><clipPath id="e169538cdd"><path d="M 176.011719 140.09375 L 194.265625 146.949219 L 187.9375 163.800781 L 169.683594 156.945312 Z M 176.011719 140.09375 " clip-rule="nonzero"/></clipPath><clipPath id="f9525d98bf"><path d="M 176.011719 140.09375 L 194.265625 146.949219 L 187.9375 163.800781 L 169.683594 156.945312 Z M 176.011719 140.09375 " clip-rule="nonzero"/></clipPath></defs><rect x="-37.5" width="450" fill="#ffffff" y="-37.499999" height="449.999989" fill-opacity="1"/><rect x="-37.5" width="450" fill="#ffffff" y="-37.499999" height="449.999989" fill-opacity="1"/><g fill="#231f20" fill-opacity="1"><g transform="translate(90.063537, 208.084348)"><g><path d="M 42.4375 -37.003906 C 45.417969 -34.992188 46.53125 -32.3125 45.789062 -28.886719 L 40.429688 -9.230469 L 32.984375 -31.71875 C 32.3125 -33.875 30.75 -36.109375 28.738281 -35.960938 L 21.21875 -9.082031 C 21.21875 -9.082031 17.421875 -18.835938 15.1875 -25.835938 C 13.476562 -31.121094 11.988281 -32.832031 15.933594 -37.003906 L -0.519531 -37.003906 C 1.9375 -34.546875 2.828125 -33.652344 4.09375 -30.453125 C 5.734375 -26.207031 15.636719 0.0742188 15.636719 0.0742188 L 20.996094 0.0742188 L 27.917969 -19.582031 L 34.917969 0.0742188 L 40.128906 0.0742188 C 40.128906 0.0742188 47.648438 -20.027344 50.328125 -28.589844 C 51.746094 -31.792969 53.753906 -34.621094 56.285156 -37.003906 Z M 42.4375 -37.003906 "/></g></g></g><g fill="#231f20" fill-opacity="1"><g transform="translate(142.407423, 208.084348)"><g/></g></g><g fill="#231f20" fill-opacity="1"><g transform="translate(150.075385, 208.084348)"><g/></g></g><g fill="#231f20" fill-opacity="1"><g transform="translate(157.74812, 208.084348)"><g><path d="M 25.089844 -4.765625 C 23.972656 -3.722656 23.15625 -3.722656 21.738281 -3.722656 L 12.730469 -3.722656 L 34.398438 -37.003906 L 1.117188 -37.003906 L 5.660156 -26.207031 L 9.679688 -32.015625 C 10.574219 -33.207031 11.914062 -33.28125 13.253906 -33.28125 L 21.589844 -33.28125 L 0 0 L 33.652344 0 L 31.566406 -9.304688 Z M 25.089844 -4.765625 "/></g></g></g><g fill="#231f20" fill-opacity="1"><g transform="translate(189.016326, 208.084348)"><g><path d="M 31.71875 -9.753906 C 31.71875 -15.710938 31.71875 -20.625 31.71875 -26.578125 C 31.71875 -27.996094 31.566406 -33.503906 21.292969 -37.523438 C 15.785156 -39.683594 9.605469 -39.085938 5.359375 -34.917969 L 9.007812 -25.835938 C 11.09375 -30.152344 15.410156 -33.800781 19.878906 -33.800781 C 22.1875 -33.800781 22.707031 -27.769531 22.558594 -26.132812 C 17.644531 -23.75 9.304688 -19.582031 2.828125 -16.304688 C 1.191406 -15.410156 0.519531 -13.921875 0.519531 -12.359375 C 0.519531 -7.074219 7.667969 0.519531 12.210938 0.519531 C 16.304688 0.519531 21.515625 -4.691406 23.007812 -6.179688 L 23.007812 -4.914062 C 23.007812 -0.671875 26.28125 0.0742188 26.28125 0.0742188 L 34.398438 -3.351562 C 31.792969 -5.433594 31.71875 -9.082031 31.71875 -9.753906 Z M 16.527344 -7.59375 C 15.410156 -7.59375 14.371094 -7.667969 13.402344 -7.890625 C 11.613281 -8.265625 10.199219 -10.496094 10.199219 -12.804688 C 10.199219 -14.519531 11.019531 -16.304688 13.027344 -17.570312 C 19.058594 -21.292969 21.515625 -22.78125 22.632812 -23.453125 L 23.007812 -8.5625 C 21.589844 -7.964844 18.984375 -7.59375 16.527344 -7.59375 Z M 16.527344 -7.59375 "/></g></g></g><g fill="#231f20" fill-opacity="1"><g transform="translate(220.731221, 208.084348)"><g><path d="M 24.273438 -38.492188 C 18.464844 -38.492188 13.921875 -33.726562 12.359375 -31.941406 L 12.359375 -38.640625 L 0.96875 -33.429688 C 3.574219 -31.269531 3.722656 -26.804688 3.722656 -26.804688 L 3.722656 -8.5625 C 3.722656 -7.59375 3.574219 -3.203125 0.96875 0 L 15.261719 0 C 12.507812 -4.394531 12.433594 -8.414062 12.433594 -8.785156 L 12.359375 -29.484375 C 14.144531 -30.226562 15.710938 -30.601562 16.976562 -30.601562 C 21.589844 -30.601562 23.378906 -26.652344 23.378906 -26.652344 L 30.675781 -35.738281 C 30.675781 -35.738281 29.109375 -38.492188 24.273438 -38.492188 Z M 24.273438 -38.492188 "/></g></g></g><g fill="#231f20" fill-opacity="1"><g transform="translate(247.60695, 208.084348)"><g><path d="M 36.332031 -3.871094 C 33.503906 -6.402344 33.503906 -10.574219 33.503906 -10.574219 L 33.503906 -56.734375 L 22.113281 -51.445312 C 24.941406 -48.914062 24.941406 -44.746094 24.941406 -44.746094 L 24.941406 -35.738281 C 21.664062 -37.226562 18.6875 -37.894531 16.082031 -37.894531 C 6.476562 -37.894531 1.488281 -29.035156 1.488281 -17.792969 C 1.488281 -9.15625 5.136719 1.117188 12.433594 1.117188 C 16.902344 1.117188 23.378906 -4.167969 25.089844 -5.582031 L 25.089844 0.820312 C 25.089844 0.820312 36.332031 -3.796875 36.332031 -3.871094 Z M 25.015625 -7.890625 C 23.75 -7.296875 21.367188 -6.699219 18.910156 -6.699219 C 16.601562 -6.699219 14.296875 -7.222656 12.953125 -8.859375 C 11.539062 -10.722656 10.796875 -15.410156 10.796875 -20.175781 C 10.796875 -25.460938 11.6875 -30.824219 13.699219 -32.3125 C 16.527344 -34.472656 21.890625 -33.949219 23.972656 -30.527344 C 24.570312 -29.632812 25.015625 -28.21875 25.015625 -27.25 Z M 25.015625 -7.890625 "/></g></g></g><g clip-path="url(#b28d5639da)"><g clip-path="url(#31497049fb)"><g clip-path="url(#ab7210653b)"><path fill="#231f20" d="M 166.082031 145.078125 C 160.460938 145.175781 151.289062 144.5 147.402344 144.1875 C 147.15625 144.167969 146.914062 144.191406 146.679688 144.265625 C 146.441406 144.335938 146.226562 144.445312 146.03125 144.597656 C 145.839844 144.75 145.679688 144.933594 145.550781 145.144531 C 145.425781 145.355469 145.34375 145.585938 145.304688 145.828125 C 144.089844 153.253906 141.328125 161.820312 140.320312 164.820312 C 140.207031 165.15625 140.1875 165.5 140.261719 165.847656 C 140.335938 166.195312 140.496094 166.503906 140.734375 166.765625 C 146.660156 173.234375 150.726562 182.09375 152.167969 185.519531 C 152.355469 185.96875 152.441406 186.433594 152.425781 186.917969 C 152.40625 187.402344 152.285156 187.859375 152.066406 188.292969 L 147.609375 197 C 147.222656 197.75 147.023438 198.542969 147.007812 199.386719 C 146.992188 200.226562 147.160156 201.03125 147.511719 201.796875 L 150.96875 209.261719 C 151.285156 209.945312 151.390625 210.664062 151.285156 211.410156 C 150.929688 213.921875 151.175781 223.03125 150.386719 228.609375 C 150.238281 229.652344 151.710938 230.035156 152.085938 229.050781 C 154.214844 223.488281 155.664062 214.722656 156.917969 211.886719 C 157.148438 211.375 157.257812 210.839844 157.25 210.277344 C 157.238281 209.714844 157.109375 209.183594 156.863281 208.679688 C 155.652344 206.226562 154.8125 203.632812 154.332031 201.941406 C 153.96875 200.65625 154.0625 199.410156 154.613281 198.195312 C 155.921875 195.3125 158.058594 191.605469 159.347656 189.449219 C 159.667969 188.910156 159.824219 188.324219 159.808594 187.699219 C 159.796875 187.070312 159.617188 186.492188 159.269531 185.96875 C 155.078125 179.59375 151.691406 172.8125 149.117188 165.632812 C 148.335938 163.464844 148.066406 161.234375 148.296875 158.941406 C 148.796875 154.339844 151.238281 152.070312 153.253906 150.96875 C 154.148438 150.476562 155.105469 150.171875 156.121094 150.0625 C 157.136719 149.953125 158.132812 150.046875 159.113281 150.335938 C 164.238281 151.894531 163.195312 157.832031 163.195312 157.832031 C 162.628906 160.8125 159.449219 162.769531 157.914062 163.554688 C 157.8125 163.605469 157.730469 163.675781 157.660156 163.761719 C 157.59375 163.851562 157.546875 163.949219 157.523438 164.058594 C 157.5 164.167969 157.503906 164.277344 157.527344 164.386719 C 157.554688 164.492188 157.601562 164.59375 157.671875 164.679688 L 158.960938 166.277344 C 159.121094 166.476562 159.324219 166.566406 159.578125 166.554688 L 165.800781 166.203125 C 166.082031 166.1875 166.351562 166.121094 166.605469 166.003906 C 166.863281 165.886719 167.089844 165.722656 167.285156 165.519531 C 167.476562 165.316406 167.628906 165.085938 167.734375 164.824219 C 167.84375 164.5625 167.898438 164.289062 167.898438 164.007812 L 168.089844 147.070312 C 168.09375 146.800781 168.042969 146.546875 167.941406 146.300781 C 167.839844 146.054688 167.695312 145.835938 167.507812 145.648438 C 167.316406 145.460938 167.097656 145.316406 166.851562 145.21875 C 166.605469 145.117188 166.347656 145.070312 166.082031 145.078125 Z M 166.082031 145.078125 " fill-opacity="1" fill-rule="nonzero"/></g></g></g><g clip-path="url(#e942d9f4c8)"><g clip-path="url(#65028a0340)"><g clip-path="url(#8f1efcf37f)"><path fill="#231f20" d="M 158.316406 159.839844 C 158.675781 159.554688 158.964844 159.207031 159.183594 158.804688 C 159.402344 158.402344 159.539062 157.972656 159.585938 157.515625 C 159.636719 157.058594 159.597656 156.613281 159.46875 156.171875 C 159.335938 155.730469 159.128906 155.332031 158.839844 154.976562 C 158.554688 154.617188 158.207031 154.328125 157.804688 154.109375 C 157.402344 153.890625 156.972656 153.753906 156.515625 153.707031 C 156.058594 153.65625 155.613281 153.695312 155.171875 153.828125 C 154.730469 153.957031 154.332031 154.164062 153.976562 154.453125 C 153.617188 154.738281 153.328125 155.085938 153.109375 155.488281 C 152.890625 155.890625 152.753906 156.320312 152.707031 156.777344 C 152.65625 157.234375 152.699219 157.679688 152.828125 158.121094 C 152.957031 158.5625 153.164062 158.960938 153.453125 159.316406 C 153.742188 159.675781 154.085938 159.964844 154.488281 160.183594 C 154.890625 160.402344 155.320312 160.539062 155.777344 160.585938 C 156.234375 160.636719 156.679688 160.597656 157.121094 160.464844 C 157.5625 160.335938 157.960938 160.128906 158.316406 159.839844 Z M 158.316406 159.839844 " fill-opacity="1" fill-rule="nonzero"/></g></g></g><g clip-path="url(#b90721b690)"><g clip-path="url(#141d61657e)"><g clip-path="url(#f4ab0e175f)"><path fill="#231f20" d="M 129.792969 153.902344 C 129.738281 153.707031 129.738281 153.523438 129.730469 153.347656 C 129.699219 152.847656 129.730469 152.347656 129.675781 151.851562 C 129.636719 151.433594 129.648438 151.019531 129.644531 150.601562 C 129.648438 150.347656 129.617188 150.089844 129.601562 149.832031 C 129.601562 149.773438 129.578125 149.738281 129.523438 149.726562 C 129.222656 149.65625 128.96875 149.484375 128.691406 149.355469 C 128.304688 149.175781 127.90625 149.019531 127.503906 148.875 C 127.117188 148.734375 126.742188 148.570312 126.363281 148.414062 C 126.054688 148.28125 125.746094 148.148438 125.453125 147.980469 C 125.339844 147.917969 125.226562 147.855469 125.140625 147.753906 C 125.105469 147.714844 125.054688 147.695312 125.011719 147.667969 C 124.820312 147.566406 124.722656 147.351562 124.777344 147.167969 C 124.796875 147.113281 124.832031 147.066406 124.871094 147.023438 C 124.976562 146.914062 125.101562 146.832031 125.242188 146.785156 C 125.285156 146.769531 125.324219 146.753906 125.359375 146.726562 C 125.574219 146.570312 125.8125 146.46875 126.0625 146.378906 C 126.40625 146.257812 126.753906 146.140625 127.101562 146.027344 C 127.316406 145.957031 127.53125 145.878906 127.75 145.816406 C 128.15625 145.699219 128.558594 145.585938 128.964844 145.472656 C 129.105469 145.433594 129.253906 145.414062 129.402344 145.390625 C 129.4375 145.382812 129.457031 145.371094 129.457031 145.335938 C 129.457031 145.050781 129.523438 144.773438 129.558594 144.492188 C 129.597656 144.160156 129.628906 143.820312 129.636719 143.480469 C 129.660156 142.808594 129.710938 142.140625 129.789062 141.472656 C 129.808594 141.296875 129.84375 141.121094 129.875 140.945312 C 129.949219 140.5 130.308594 140.445312 130.609375 140.589844 C 130.800781 140.679688 130.949219 140.816406 131.085938 140.976562 C 131.558594 141.539062 132.070312 142.066406 132.554688 142.617188 C 132.921875 143.039062 133.269531 143.476562 133.625 143.910156 C 133.671875 143.964844 133.710938 143.984375 133.789062 143.96875 C 134.078125 143.914062 134.371094 143.871094 134.660156 143.820312 C 134.820312 143.789062 134.980469 143.75 135.136719 143.707031 C 135.417969 143.628906 135.699219 143.546875 135.980469 143.472656 C 136.289062 143.390625 136.605469 143.324219 136.914062 143.246094 C 137.019531 143.21875 137.128906 143.207031 137.234375 143.15625 C 137.359375 143.097656 137.5 143.109375 137.636719 143.09375 C 137.878906 143.066406 138.121094 143.035156 138.371094 143.035156 C 138.511719 143.035156 138.640625 143.074219 138.742188 143.179688 C 138.875 143.308594 138.910156 143.460938 138.835938 143.628906 C 138.746094 143.835938 138.617188 144.023438 138.480469 144.203125 C 137.980469 144.859375 137.375 145.421875 136.820312 146.027344 C 136.621094 146.246094 136.425781 146.46875 136.226562 146.6875 C 136.183594 146.734375 136.175781 146.765625 136.21875 146.816406 C 136.535156 147.195312 136.75 147.640625 136.960938 148.078125 C 137.230469 148.640625 137.496094 149.207031 137.753906 149.777344 C 137.921875 150.144531 138.09375 150.507812 138.199219 150.898438 C 138.246094 151.070312 138.324219 151.230469 138.402344 151.390625 C 138.5 151.601562 138.484375 151.78125 138.355469 151.90625 C 138.28125 151.972656 138.199219 151.996094 138.105469 152.003906 C 137.84375 152.03125 137.601562 151.972656 137.359375 151.882812 C 137.058594 151.773438 136.785156 151.597656 136.488281 151.472656 C 135.738281 151.152344 135.003906 150.800781 134.277344 150.425781 C 134.226562 150.398438 134.191406 150.402344 134.152344 150.4375 C 134.0625 150.515625 133.972656 150.59375 133.894531 150.6875 C 133.652344 150.964844 133.425781 151.253906 133.164062 151.511719 C 132.789062 151.882812 132.460938 152.296875 132.128906 152.714844 C 131.738281 153.203125 131.332031 153.683594 130.894531 154.136719 C 130.792969 154.246094 130.683594 154.351562 130.5625 154.445312 C 130.324219 154.640625 130.0625 154.582031 129.941406 154.300781 C 129.890625 154.15625 129.855469 154.015625 129.792969 153.902344 Z M 129.792969 153.902344 " fill-opacity="1" fill-rule="nonzero"/></g></g></g><g clip-path="url(#c2bbca86ab)"><g clip-path="url(#823883b2c0)"><g clip-path="url(#af365eb520)"><path fill="#231f20" d="M 167.84375 136.910156 C 167.804688 136.773438 167.804688 136.644531 167.800781 136.515625 C 167.777344 136.160156 167.800781 135.804688 167.761719 135.449219 C 167.730469 135.152344 167.742188 134.855469 167.738281 134.558594 C 167.742188 134.375 167.71875 134.191406 167.710938 134.007812 C 167.707031 133.96875 167.691406 133.941406 167.652344 133.933594 C 167.4375 133.882812 167.253906 133.761719 167.058594 133.671875 C 166.78125 133.539062 166.496094 133.429688 166.210938 133.324219 C 165.9375 133.226562 165.671875 133.109375 165.398438 132.996094 C 165.179688 132.902344 164.960938 132.808594 164.75 132.691406 C 164.667969 132.644531 164.589844 132.601562 164.527344 132.527344 C 164.503906 132.5 164.464844 132.484375 164.433594 132.46875 C 164.296875 132.394531 164.230469 132.238281 164.269531 132.109375 C 164.28125 132.070312 164.308594 132.035156 164.335938 132.007812 C 164.410156 131.929688 164.496094 131.867188 164.597656 131.835938 C 164.628906 131.824219 164.65625 131.8125 164.683594 131.792969 C 164.835938 131.683594 165.003906 131.609375 165.183594 131.546875 C 165.429688 131.460938 165.675781 131.378906 165.925781 131.296875 C 166.078125 131.246094 166.230469 131.1875 166.386719 131.144531 C 166.675781 131.0625 166.964844 130.980469 167.253906 130.898438 C 167.355469 130.871094 167.460938 130.859375 167.566406 130.839844 C 167.589844 130.835938 167.605469 130.828125 167.605469 130.800781 C 167.605469 130.597656 167.652344 130.402344 167.675781 130.203125 C 167.707031 129.960938 167.726562 129.722656 167.734375 129.480469 C 167.75 129 167.785156 128.523438 167.84375 128.046875 C 167.855469 127.921875 167.882812 127.796875 167.902344 127.671875 C 167.957031 127.351562 168.210938 127.3125 168.425781 127.414062 C 168.5625 127.480469 168.671875 127.578125 168.765625 127.695312 C 169.105469 128.09375 169.46875 128.46875 169.8125 128.863281 C 170.074219 129.164062 170.324219 129.476562 170.578125 129.785156 C 170.609375 129.824219 170.640625 129.839844 170.695312 129.828125 C 170.902344 129.789062 171.109375 129.757812 171.316406 129.722656 C 171.429688 129.699219 171.546875 129.667969 171.65625 129.640625 C 171.855469 129.585938 172.054688 129.523438 172.257812 129.472656 C 172.476562 129.414062 172.703125 129.367188 172.925781 129.3125 C 173 129.292969 173.078125 129.285156 173.152344 129.25 C 173.242188 129.207031 173.34375 129.214844 173.4375 129.203125 C 173.613281 129.183594 173.785156 129.160156 173.960938 129.160156 C 174.0625 129.160156 174.152344 129.191406 174.230469 129.265625 C 174.320312 129.355469 174.347656 129.464844 174.296875 129.585938 C 174.230469 129.734375 174.140625 129.867188 174.042969 129.992188 C 173.683594 130.460938 173.253906 130.863281 172.855469 131.296875 C 172.714844 131.449219 172.574219 131.609375 172.433594 131.765625 C 172.402344 131.800781 172.398438 131.820312 172.425781 131.859375 C 172.652344 132.128906 172.808594 132.445312 172.957031 132.757812 C 173.148438 133.160156 173.339844 133.5625 173.523438 133.96875 C 173.644531 134.230469 173.765625 134.492188 173.839844 134.769531 C 173.871094 134.894531 173.929688 135.007812 173.984375 135.121094 C 174.054688 135.269531 174.046875 135.402344 173.949219 135.488281 C 173.898438 135.535156 173.839844 135.554688 173.773438 135.558594 C 173.585938 135.578125 173.414062 135.535156 173.242188 135.472656 C 173.027344 135.394531 172.832031 135.269531 172.621094 135.179688 C 172.085938 134.949219 171.558594 134.699219 171.042969 134.433594 C 171.007812 134.414062 170.980469 134.414062 170.953125 134.441406 C 170.890625 134.496094 170.828125 134.554688 170.769531 134.621094 C 170.597656 134.816406 170.4375 135.023438 170.25 135.207031 C 169.980469 135.472656 169.746094 135.769531 169.511719 136.0625 C 169.230469 136.414062 168.941406 136.757812 168.632812 137.078125 C 168.558594 137.15625 168.480469 137.234375 168.394531 137.300781 C 168.222656 137.4375 168.039062 137.394531 167.949219 137.195312 C 167.914062 137.09375 167.886719 136.992188 167.84375 136.910156 Z M 167.84375 136.910156 " fill-opacity="1" fill-rule="nonzero"/></g></g></g><g clip-path="url(#daf2eee6db)"><g clip-path="url(#e169538cdd)"><g clip-path="url(#f9525d98bf)"><path fill="#231f20" d="M 173.507812 157.277344 C 173.617188 157.027344 173.765625 156.839844 173.910156 156.644531 C 174.296875 156.097656 174.746094 155.605469 175.105469 155.042969 C 175.414062 154.574219 175.773438 154.152344 176.121094 153.714844 C 176.339844 153.449219 176.523438 153.160156 176.722656 152.878906 C 176.773438 152.816406 176.777344 152.757812 176.730469 152.699219 C 176.476562 152.375 176.351562 151.980469 176.171875 151.617188 C 175.921875 151.101562 175.636719 150.605469 175.339844 150.117188 C 175.050781 149.648438 174.804688 149.164062 174.539062 148.679688 C 174.324219 148.285156 174.117188 147.886719 173.949219 147.46875 C 173.882812 147.308594 173.820312 147.148438 173.816406 146.96875 C 173.8125 146.898438 173.777344 146.835938 173.75 146.769531 C 173.640625 146.503906 173.71875 146.195312 173.929688 146.054688 C 173.996094 146.011719 174.070312 145.992188 174.148438 145.980469 C 174.347656 145.957031 174.546875 145.972656 174.734375 146.042969 C 174.792969 146.0625 174.847656 146.078125 174.90625 146.082031 C 175.261719 146.097656 175.59375 146.1875 175.929688 146.308594 C 176.390625 146.472656 176.847656 146.640625 177.304688 146.8125 C 177.589844 146.917969 177.878906 147.015625 178.160156 147.136719 C 178.683594 147.351562 179.199219 147.570312 179.714844 147.796875 C 179.894531 147.875 180.066406 147.980469 180.242188 148.078125 C 180.285156 148.101562 180.3125 148.105469 180.339844 148.066406 C 180.582031 147.769531 180.886719 147.539062 181.15625 147.273438 C 181.480469 146.957031 181.792969 146.628906 182.089844 146.285156 C 182.675781 145.601562 183.289062 144.949219 183.929688 144.316406 C 184.097656 144.152344 184.28125 144 184.460938 143.839844 C 184.914062 143.4375 185.332031 143.679688 185.527344 144.085938 C 185.648438 144.339844 185.691406 144.609375 185.695312 144.890625 C 185.71875 145.871094 185.8125 146.851562 185.851562 147.828125 C 185.882812 148.578125 185.875 149.328125 185.886719 150.078125 C 185.886719 150.171875 185.910156 150.226562 186.007812 150.277344 C 186.355469 150.460938 186.695312 150.664062 187.039062 150.851562 C 187.230469 150.953125 187.433594 151.046875 187.628906 151.136719 C 187.988281 151.289062 188.351562 151.433594 188.707031 151.59375 C 189.097656 151.769531 189.480469 151.964844 189.871094 152.144531 C 190.003906 152.207031 190.128906 152.285156 190.277344 152.320312 C 190.460938 152.363281 190.597656 152.496094 190.75 152.59375 C 191.027344 152.765625 191.308594 152.9375 191.566406 153.144531 C 191.710938 153.265625 191.8125 153.410156 191.832031 153.609375 C 191.863281 153.851562 191.769531 154.042969 191.550781 154.15625 C 191.285156 154.296875 190.996094 154.382812 190.703125 154.457031 C 189.628906 154.71875 188.527344 154.796875 187.4375 154.964844 C 187.046875 155.023438 186.65625 155.09375 186.269531 155.152344 C 186.183594 155.164062 186.148438 155.191406 186.148438 155.285156 C 186.160156 155.945312 186.015625 156.585938 185.867188 157.222656 C 185.671875 158.035156 185.476562 158.847656 185.269531 159.65625 C 185.136719 160.179688 185.011719 160.703125 184.789062 161.199219 C 184.691406 161.417969 184.644531 161.652344 184.589844 161.878906 C 184.515625 162.183594 184.347656 162.363281 184.105469 162.382812 C 183.976562 162.386719 183.867188 162.34375 183.765625 162.273438 C 183.46875 162.082031 183.265625 161.820312 183.089844 161.523438 C 182.867188 161.152344 182.730469 160.742188 182.523438 160.363281 C 182.015625 159.398438 181.542969 158.414062 181.097656 157.414062 C 181.070312 157.347656 181.03125 157.320312 180.957031 157.320312 C 180.800781 157.332031 180.640625 157.339844 180.480469 157.367188 C 179.996094 157.457031 179.515625 157.570312 179.027344 157.617188 C 178.324219 157.6875 177.632812 157.84375 176.941406 158 C 176.121094 158.183594 175.292969 158.339844 174.460938 158.449219 C 174.261719 158.472656 174.058594 158.492188 173.851562 158.492188 C 173.441406 158.492188 173.21875 158.214844 173.328125 157.816406 C 173.394531 157.628906 173.476562 157.449219 173.507812 157.277344 Z M 173.507812 157.277344 " fill-opacity="1" fill-rule="nonzero"/></g></g></g></svg>